{"title":"Hard Candy-720p MP4 AAC x264 BRRip 2006-CC","uid":7743058,"size":2991719908,"categoryP":"video","categoryS":"hd___movies","magnet":"?xt=urn:btih:be719b128509f19438bb8e13c3d905f1ea9523a8&amp;dn=Hard+Candy-720p+MP4+AAC+x264+BRRip+2006-CC&amp;tr=udp%3A%2F%2Ftracker.openbittorrent.com%3A80&amp;tr=udp%3A%2F%2Fopen.demonii.com%3A1337&amp;tr=udp%3A%2F%2Ftracker.coppersurfer.tk%3A6969&amp;tr=udp%3A%2F%2Fexodus.desync.com%3A6969","seeders":3,"leechers":0,"uploader":"Caveman44","files":-1,"time":1350678474,"description":" &lt;a href=&quot;http://www.imdb.com/title/tt0424136/&quot; rel=&quot;nofollow&quot; target=&quot;_NEW&quot;&gt;http://www.imdb.com/title/tt0424136/&lt;/a&gt;\n\nSource: Hard.Candy.2006.BluRay.720p.DTS.x264-CHD Thanks!\n\nSubs: Arabic, Danish, Dutch, English, Estonian, Finnish, French, Greek, Romanian, Slovenian and Spanish.\n\nSample and Screens included.\n\nGeneral\nComplete name                            : Hard Candy-720p MP4 AAC x264 BRRip 2006-CC.mp4\nFormat                                   : MPEG-4\nFormat profile                           : Base Media\nCodec ID                                 : isom\nFile size                                : 2.75 GiB\nDuration                                 : 1h 39mn\nOverall bit rate mode                    : Variable\nOverall bit rate                         : 3 947 Kbps\nEncoded date                             : UTC 2012-10-10 18:59:29\n\nVideo\nID                                       : 1\nFormat                                   : AVC\nFormat/Info                              : Advanced Video Codec\nFormat profile                           : &lt;a class=&quot;__cf_email__&quot; href=&quot;/cdn-cgi/l/email-protection&quot; data-cfemail=&quot;b6fedfd1def6fa829887&quot;&gt;[email&amp;#160;protected]&lt;/a&gt;&lt;script cf-hash='f9e31' type=&quot;text/javascript&quot;&gt;\n/* &lt;![CDATA[ */!function(){try{var t=&quot;currentScript&quot;in document?document.currentScript:function(){for(var t=document.getElementsByTagName(&quot;script&quot;),e=t.length;e--;)if(t[e].getAttribute(&quot;cf-hash&quot;))return t[e]}();if(t&amp;&amp;t.previousSibling){var e,r,n,i,c=t.previousSibling,a=c.getAttribute(&quot;data-cfemail&quot;);if(a){for(e=&quot;&quot;,r=parseInt(a.substr(0,2),16),n=2;a.length-n;n+=2)i=parseInt(a.substr(n,2),16)^r,e+=String.fromCharCode(i);e=document.createTextNode(e),c.parentNode.replaceChild(e,c)}}}catch(u){}}();/* ]]&gt; */&lt;/script&gt;\nFormat settings, CABAC                   : Yes\nFormat settings, ReFrames                : 5 frames\nCodec ID                                 : avc1\nCodec ID/Info                            : Advanced Video Coding\nDuration                                 : 1h 39mn\nBit rate                                 : 3 629 Kbps\nMaximum bit rate                         : 19.1 Mbps\nWidth                                    : 1 280 pixels\nHeight                                   : 544 pixels\nDisplay aspect ratio                     : 2.35:1\nFrame rate mode                          : Variable\nFrame rate                               : 25.000 fps\nMinimum frame rate                       : 16.667 fps\nMaximum frame rate                       : 25.000 fps\nColor space                              : YUV\nChroma subsampling                       : 4:2:0\nBit depth                                : 8 bits\nScan type                                : Progressive\nBits/(Pixel*Frame)                       : 0.208\nStream size                              : 2.49 GiB (90%)\nWriting library                          : x264 core 112\n\nAudio\nID                                       : 2\nFormat                                   : AAC\nFormat/Info                              : Advanced Audio Codec\nFormat profile                           : LC\nCodec ID                                 : 40\nDuration                                 : 1h 39mn\nBit rate mode                            : Variable\nBit rate                                 : 376 Kbps\nMaximum bit rate                         : 741 Kbps\nChannel(s)                               : 6 channels\nChannel positions                        : Front: L C R, Side: L R, LFE\nSampling rate                            : 48.0 KHz\nCompression mode                         : Lossy\nDelay relative to video                  : 80ms\nStream size                              : 269 MiB (10%)\nLanguage                                 : English\n\nEnjoy...\n\nRequested by mrmuvis.\n\nComing soon: Meet Joe Black, The Sting, Cat Run, Sunset Blvd and more..","torrent":{"xt":"urn:btih:be719b128509f19438bb8e13c3d905f1ea9523a8","amp;dn":"Hard+Candy-720p+MP4+AAC+x264+BRRip+2006-CC","amp;tr":["udp%3A%2F%2Ftracker.openbittorrent.com%3A80","udp%3A%2F%2Fopen.demonii.com%3A1337","udp%3A%2F%2Ftracker.coppersurfer.tk%3A6969","udp%3A%2F%2Fexodus.desync.com%3A6969"],"infoHash":"be719b128509f19438bb8e13c3d905f1ea9523a8","infoHashBuffer":{"type":"Buffer","data":[190,113,155,18,133,9,241,148,56,187,142,19,195,217,5,241,234,149,35,168]},"announce":[],"urlList":[]}}